<svg data-v-fde0c5aa="" xmlns="http://www.w3.org/2000/svg" viewBox="0 0 300 300" class="font"><!----><defs data-v-fde0c5aa=""><!----></defs><rect data-v-fde0c5aa="" fill="#341952" x="0" y="0" width="300px" height="300px" class="logo-background-square"></rect><defs data-v-fde0c5aa=""><!----></defs><g data-v-fde0c5aa="" id="f00f4830-361a-4ec2-a7d2-072d52d1745e" fill="#E96D77" transform="matrix(3.894494485098607,0,0,3.894494485098607,36.72862450252439,123.08904230944157)"><path d="M4.44 4.61L4.44 4.61Q5.46 4.61 6.27 5.09L6.27 5.09L6.27 5.09Q7.07 5.57 7.52 6.43L7.52 6.43L7.52 6.43Q7.97 7.28 7.97 8.37L7.97 8.37L7.97 8.37Q7.97 8.55 7.85 8.66L7.85 8.66L7.85 8.66Q7.74 8.76 7.56 8.76L7.56 8.76L1.69 8.76L1.69 8.76Q1.74 9.59 2.13 10.24L2.13 10.24L2.13 10.24Q2.52 10.89 3.18 11.26L3.18 11.26L3.18 11.26Q3.84 11.62 4.65 11.62L4.65 11.62L4.65 11.62Q5.19 11.62 5.75 11.43L5.75 11.43L5.75 11.43Q6.30 11.24 6.62 10.93L6.62 10.93L6.62 10.93Q6.76 10.82 6.92 10.82L6.92 10.82L6.92 10.82Q7.07 10.82 7.17 10.91L7.17 10.91L7.17 10.91Q7.32 11.03 7.32 11.20L7.32 11.20L7.32 11.20Q7.32 11.34 7.20 11.47L7.20 11.47L7.20 11.47Q6.75 11.87 6.03 12.14L6.03 12.14L6.03 12.14Q5.31 12.40 4.65 12.40L4.65 12.40L4.65 12.40Q3.54 12.40 2.68 11.91L2.68 11.91L2.68 11.91Q1.82 11.41 1.33 10.52L1.33 10.52L1.33 10.52Q0.84 9.63 0.84 8.51L0.84 8.51L0.84 8.51Q0.84 7.38 1.29 6.49L1.29 6.49L1.29 6.49Q1.75 5.60 2.57 5.10L2.57 5.10L2.57 5.10Q3.39 4.61 4.44 4.61L4.44 4.61ZM4.44 5.39L4.44 5.39Q3.35 5.39 2.60 6.12L2.60 6.12L2.60 6.12Q1.85 6.85 1.71 8.04L1.71 8.04L7.15 8.04L7.15 8.04Q7.06 6.85 6.31 6.12L6.31 6.12L6.31 6.12Q5.57 5.39 4.44 5.39L4.44 5.39ZM13.03 4.59L13.03 4.59Q14.10 4.59 14.10 5.05L14.10 5.05L14.10 5.05Q14.10 5.12 14.08 5.17L14.08 5.17L14.08 5.17Q14.04 5.32 13.95 5.38L13.95 5.38L13.95 5.38Q13.86 5.45 13.71 5.45L13.71 5.45L13.71 5.45Q13.58 5.45 13.38 5.42L13.38 5.42L13.38 5.42Q13.17 5.39 13.03 5.39L13.03 5.39L13.03 5.39Q12.33 5.39 11.79 5.68L11.79 5.68L11.79 5.68Q11.24 5.98 10.93 6.50L10.93 6.50L10.93 6.50Q10.63 7.01 10.63 7.66L10.63 7.66L10.63 11.91L10.63 11.91Q10.63 12.10 10.51 12.21L10.51 12.21L10.51 12.21Q10.40 12.33 10.21 12.33L10.21 12.33L10.21 12.33Q10.02 12.33 9.90 12.21L9.90 12.21L9.90 12.21Q9.79 12.10 9.79 11.91L9.79 11.91L9.79 5.10L9.79 5.10Q9.79 4.90 9.90 4.79L9.90 4.79L9.90 4.79Q10.02 4.68 10.21 4.68L10.21 4.68L10.21 4.68Q10.40 4.68 10.51 4.79L10.51 4.79L10.51 4.79Q10.63 4.90 10.63 5.10L10.63 5.10L10.63 5.96L10.63 5.96Q11.03 5.32 11.66 4.96L11.66 4.96L11.66 4.96Q12.29 4.59 13.03 4.59L13.03 4.59ZM19.42 4.58L19.42 4.58Q20.44 4.58 21.25 5.00L21.25 5.00L21.25 5.00Q22.05 5.42 22.51 6.22L22.51 6.22L22.51 6.22Q22.96 7.03 22.96 8.15L22.96 8.15L22.96 11.91L22.96 11.91Q22.96 12.10 22.84 12.21L22.84 12.21L22.84 12.21Q22.72 12.33 22.54 12.33L22.54 12.33L22.54 12.33Q22.36 12.33 22.24 12.21L22.24 12.21L22.24 12.21Q22.12 12.10 22.12 11.91L22.12 11.91L22.12 8.15L22.12 8.15Q22.12 6.82 21.37 6.12L21.37 6.12L21.37 6.12Q20.62 5.42 19.42 5.42L19.42 5.42L19.42 5.42Q18.68 5.42 18.07 5.70L18.07 5.70L18.07 5.70Q17.46 5.99 17.11 6.50L17.11 6.50L17.11 6.50Q16.76 7.01 16.76 7.63L16.76 7.63L16.76 11.91L16.76 11.91Q16.76 12.10 16.65 12.21L16.65 12.21L16.65 12.21Q16.53 12.33 16.34 12.33L16.34 12.33L16.34 12.33Q16.16 12.33 16.04 12.21L16.04 12.21L16.04 12.21Q15.92 12.10 15.92 11.91L15.92 11.91L15.92 5.10L15.92 5.10Q15.92 4.90 16.04 4.79L16.04 4.79L16.04 4.79Q16.16 4.68 16.34 4.68L16.34 4.68L16.34 4.68Q16.53 4.68 16.65 4.79L16.65 4.79L16.65 4.79Q16.76 4.90 16.76 5.10L16.76 5.10L16.76 5.82L16.76 5.82Q17.23 5.24 17.92 4.91L17.92 4.91L17.92 4.91Q18.61 4.58 19.42 4.58L19.42 4.58ZM28.52 4.61L28.52 4.61Q29.54 4.61 30.35 5.09L30.35 5.09L30.35 5.09Q31.15 5.57 31.60 6.43L31.60 6.43L31.60 6.43Q32.05 7.28 32.05 8.37L32.05 8.37L32.05 8.37Q32.05 8.55 31.93 8.66L31.93 8.66L31.93 8.66Q31.82 8.76 31.64 8.76L31.64 8.76L25.77 8.76L25.77 8.76Q25.82 9.59 26.21 10.24L26.21 10.24L26.21 10.24Q26.60 10.89 27.26 11.26L27.26 11.26L27.26 11.26Q27.92 11.62 28.73 11.62L28.73 11.62L28.73 11.62Q29.27 11.62 29.83 11.43L29.83 11.43L29.83 11.43Q30.38 11.24 30.70 10.93L30.70 10.93L30.70 10.93Q30.84 10.82 31.00 10.82L31.00 10.82L31.00 10.82Q31.15 10.82 31.25 10.91L31.25 10.91L31.25 10.91Q31.40 11.03 31.40 11.20L31.40 11.20L31.40 11.20Q31.40 11.34 31.28 11.47L31.28 11.47L31.28 11.47Q30.83 11.87 30.11 12.14L30.11 12.14L30.11 12.14Q29.39 12.40 28.73 12.40L28.73 12.40L28.73 12.40Q27.62 12.40 26.76 11.91L26.76 11.91L26.76 11.91Q25.90 11.41 25.41 10.52L25.41 10.52L25.41 10.52Q24.92 9.63 24.92 8.51L24.92 8.51L24.92 8.51Q24.92 7.38 25.38 6.49L25.38 6.49L25.38 6.49Q25.83 5.60 26.65 5.10L26.65 5.10L26.65 5.10Q27.47 4.61 28.52 4.61L28.52 4.61ZM28.52 5.39L28.52 5.39Q27.43 5.39 26.68 6.12L26.68 6.12L26.68 6.12Q25.93 6.85 25.79 8.04L25.79 8.04L31.23 8.04L31.23 8.04Q31.14 6.85 30.39 6.12L30.39 6.12L30.39 6.12Q29.65 5.39 28.52 5.39L28.52 5.39ZM37.11 4.59L37.11 4.59Q38.18 4.59 38.18 5.05L38.18 5.05L38.18 5.05Q38.18 5.12 38.16 5.17L38.16 5.17L38.16 5.17Q38.12 5.32 38.03 5.38L38.03 5.38L38.03 5.38Q37.94 5.45 37.79 5.45L37.79 5.45L37.79 5.45Q37.66 5.45 37.46 5.42L37.46 5.42L37.46 5.42Q37.25 5.39 37.11 5.39L37.11 5.39L37.11 5.39Q36.41 5.39 35.87 5.68L35.87 5.68L35.87 5.68Q35.32 5.98 35.01 6.50L35.01 6.50L35.01 6.50Q34.71 7.01 34.71 7.66L34.71 7.66L34.71 11.91L34.71 11.91Q34.71 12.10 34.59 12.21L34.59 12.21L34.59 12.21Q34.48 12.33 34.29 12.33L34.29 12.33L34.29 12.33Q34.10 12.33 33.98 12.21L33.98 12.21L33.98 12.21Q33.87 12.10 33.87 11.91L33.87 11.91L33.87 5.10L33.87 5.10Q33.87 4.90 33.98 4.79L33.98 4.79L33.98 4.79Q34.10 4.68 34.29 4.68L34.29 4.68L34.29 4.68Q34.48 4.68 34.59 4.79L34.59 4.79L34.59 4.79Q34.71 4.90 34.71 5.10L34.71 5.10L34.71 5.96L34.71 5.96Q35.11 5.32 35.74 4.96L35.74 4.96L35.74 4.96Q36.37 4.59 37.11 4.59L37.11 4.59ZM46.98 1.40L46.98 1.40Q47.18 1.40 47.29 1.51L47.29 1.51L47.29 1.51Q47.40 1.62 47.40 1.82L47.40 1.82L47.40 8.55L47.40 8.58L47.40 8.58Q47.39 9.66 46.87 10.54L46.87 10.54L46.87 10.54Q46.35 11.42 45.47 11.92L45.47 11.92L45.47 11.92Q44.58 12.42 43.50 12.42L43.50 12.42L43.50 12.42Q42.39 12.42 41.50 11.91L41.50 11.91L41.50 11.91Q40.60 11.40 40.09 10.50L40.09 10.50L40.09 10.50Q39.58 9.60 39.58 8.50L39.58 8.50L39.58 8.50Q39.58 7.41 40.09 6.51L40.09 6.51L40.09 6.51Q40.60 5.61 41.50 5.10L41.50 5.10L41.50 5.10Q42.39 4.59 43.50 4.59L43.50 4.59L43.50 4.59Q44.49 4.59 45.30 5.02L45.30 5.02L45.30 5.02Q46.10 5.45 46.56 6.19L46.56 6.19L46.56 1.82L46.56 1.82Q46.56 1.62 46.68 1.51L46.68 1.51L46.68 1.51Q46.80 1.40 46.98 1.40L46.98 1.40ZM43.50 11.63L43.50 11.63Q44.37 11.63 45.07 11.22L45.07 11.22L45.07 11.22Q45.77 10.81 46.16 10.09L46.16 10.09L46.16 10.09Q46.56 9.38 46.56 8.50L46.56 8.50L46.56 8.50Q46.56 7.62 46.16 6.90L46.16 6.90L46.16 6.90Q45.77 6.19 45.07 5.78L45.07 5.78L45.07 5.78Q44.37 5.38 43.50 5.38L43.50 5.38L43.50 5.38Q42.63 5.38 41.93 5.78L41.93 5.78L41.93 5.78Q41.23 6.19 40.82 6.90L40.82 6.90L40.82 6.90Q40.42 7.62 40.42 8.50L40.42 8.50L40.42 8.50Q40.42 9.38 40.82 10.09L40.82 10.09L40.82 10.09Q41.23 10.81 41.93 11.22L41.93 11.22L41.93 11.22Q42.63 11.63 43.50 11.63L43.50 11.63ZM53.42 4.59L53.42 4.59Q54.52 4.59 55.41 5.10L55.41 5.10L55.41 5.10Q56.31 5.61 56.82 6.51L56.82 6.51L56.82 6.51Q57.33 7.41 57.33 8.51L57.33 8.51L57.33 8.51Q57.33 9.60 56.82 10.50L56.82 10.50L56.82 10.50Q56.31 11.40 55.41 11.91L55.41 11.91L55.41 11.91Q54.52 12.42 53.42 12.42L53.42 12.42L53.42 12.42Q52.32 12.42 51.42 11.91L51.42 11.91L51.42 11.91Q50.53 11.40 50.02 10.50L50.02 10.50L50.02 10.50Q49.50 9.60 49.50 8.51L49.50 8.51L49.50 8.51Q49.50 7.41 50.02 6.51L50.02 6.51L50.02 6.51Q50.53 5.61 51.42 5.10L51.42 5.10L51.42 5.10Q52.32 4.59 53.42 4.59L53.42 4.59ZM53.42 5.38L53.42 5.38Q52.56 5.38 51.86 5.79L51.86 5.79L51.86 5.79Q51.16 6.20 50.75 6.92L50.75 6.92L50.75 6.92Q50.34 7.63 50.34 8.51L50.34 8.51L50.34 8.51Q50.34 9.39 50.75 10.11L50.75 10.11L50.75 10.11Q51.16 10.82 51.86 11.23L51.86 11.23L51.86 11.23Q52.56 11.63 53.42 11.63L53.42 11.63L53.42 11.63Q54.29 11.63 54.99 11.23L54.99 11.23L54.99 11.23Q55.69 10.82 56.09 10.11L56.09 10.11L56.09 10.11Q56.49 9.39 56.49 8.51L56.49 8.51L56.49 8.51Q56.49 7.63 56.09 6.92L56.09 6.92L56.09 6.92Q55.69 6.20 54.99 5.79L54.99 5.79L54.99 5.79Q54.29 5.38 53.42 5.38L53.42 5.38Z"></path></g><!----><!----></svg>